<svg width="86" height="86" viewBox="0 0 86 86" fill="none" xmlns="http://www.w3.org/2000/svg">
<rect width="86" height="86" rx="16" fill="#5C5A57" fill-opacity="0.1"/>
<path fill-rule="evenodd" clip-rule="evenodd" d="M48.8088 35.4505L49.4799 35.1791C50.138 34.913 50.5321 34.2346 50.4372 33.5311L47.3756 34.0716C47.0411 33.9294 46.6731 33.8508 46.2868 33.8508C44.7477 33.8508 43.5 35.0985 43.5 36.6376C43.5 38.1767 44.7477 39.4243 46.2868 39.4243C47.8258 39.4243 49.0735 38.1767 49.0735 36.6376C49.0735 36.213 48.9786 35.8107 48.8088 35.4505ZM34.1295 41.7434C34.6512 40.7474 35.6994 40.1404 36.8229 40.1836C37.2989 40.202 37.8634 40.2113 38.4858 40.2216C39.7394 40.2423 41.2281 40.2669 42.702 40.3768C42.9947 44.2613 41.8461 46.7037 40.15 48.3001L39.85 50.4L34.65 50.1L35.5 43.7L33.5486 42.8526L34.1295 41.7434ZM39.85 50.4001L39.6 52C40.0436 52 41.0163 52.0111 42.1866 52.0244L42.1876 52.0244L42.1879 52.0244H42.1882C43.9556 52.0446 46.1732 52.0698 47.7 52.0698C48.0656 50.8811 48.3651 49.6561 48.6148 48.3092L50.3746 52.0731C50.988 51.5885 51.2947 51.3462 51.4901 51.049C51.7424 50.6652 51.8683 50.2122 51.8501 49.7533C51.836 49.3979 51.6982 49.0321 51.4226 48.3005L49.3609 42.8271C49.3244 42.7302 49.2997 42.6646 49.2731 42.6174C49.2454 42.5265 49.2022 42.441 49.1409 42.3656C48.2851 41.3136 46.3602 40.7913 44.2089 40.5239C44.5769 44.9037 43.0835 48.3477 39.85 50.4001Z" fill="#21201F"/>
</svg>
