<svg width="32" height="32" viewBox="0 0 32 32" fill="none" xmlns="http://www.w3.org/2000/svg">
<g filter="url(#filter0_d_1_25582)">
<path d="M16 26C22.6274 26 28 20.6274 28 14C28 7.37258 22.6274 2 16 2C9.37258 2 4 7.37258 4 14C4 20.6274 9.37258 26 16 26Z" fill="white"/>
</g>
<path fill-rule="evenodd" clip-rule="evenodd" d="M17.5204 21.9999V6H19.5204V21.9999H17.5204Z" fill="#F5523A"/>
<path d="M14.0908 16L10.8398 22H13.1145L16.3655 16H14.0908Z" fill="#F5523A"/>
<path fill-rule="evenodd" clip-rule="evenodd" d="M14.2849 8.85627C13.7618 9.40896 13.3717 10.2939 13.3717 11.5913C13.3717 12.8624 13.7989 13.6834 14.3579 14.1941C14.9338 14.7201 15.742 15 16.6261 15H19.5221V17H16.6261C15.3358 17 14.0168 16.5912 13.0091 15.6707C11.9845 14.7348 11.3717 13.3516 11.3717 11.5913C11.3717 9.88383 11.8937 8.4731 12.8325 7.48136C13.7715 6.48945 15.0501 6 16.3957 6H19.5221V8H16.3957C15.5414 8 14.808 8.30375 14.2849 8.85627Z" fill="#F5523A"/>
<defs>
<filter id="filter0_d_1_25582" x="0" y="0" width="32" height="32" filterUnits="userSpaceOnUse" color-interpolation-filters="sRGB">
<feFlood flood-opacity="0" result="BackgroundImageFix"/>
<feColorMatrix in="SourceAlpha" type="matrix" values="0 0 0 0 0 0 0 0 0 0 0 0 0 0 0 0 0 0 127 0" result="hardAlpha"/>
<feOffset dy="2"/>
<feGaussianBlur stdDeviation="2"/>
<feColorMatrix type="matrix" values="0 0 0 0 0.129412 0 0 0 0 0.12549 0 0 0 0 0.121569 0 0 0 0.15 0"/>
<feBlend mode="normal" in2="BackgroundImageFix" result="effect1_dropShadow_1_25582"/>
<feBlend mode="normal" in="SourceGraphic" in2="effect1_dropShadow_1_25582" result="shape"/>
</filter>
</defs>
</svg>
