<svg width="86" height="86" viewBox="0 0 86 86" fill="none" xmlns="http://www.w3.org/2000/svg">
<rect width="86" height="86" rx="16" fill="#5C5A57" fill-opacity="0.1"/>
<path fill-rule="evenodd" clip-rule="evenodd" d="M54 39.9799L53.2321 46.6723L51.1396 44.8868L47.5816 49.1985C45.9467 51.1798 43.2083 51.59 41.4777 50.1134C39.7472 48.6368 39.669 45.8233 41.3038 43.8421L43.6758 40.9676C44.6566 39.779 44.6729 38.1446 43.711 37.3238C42.7491 36.5031 41.169 36.8032 40.1882 37.9918L37.1141 41.7171C37.6804 42.7061 37.6125 43.994 36.8393 44.9311C35.8567 46.1218 34.1235 46.2876 32.9677 45.3014C31.8119 44.3153 31.6715 42.5508 32.6541 41.3601C33.4274 40.423 34.6629 40.1314 35.719 40.5268L38.7931 36.8015C40.428 34.8202 43.1664 34.41 44.897 35.8866C46.6275 37.3632 46.7058 40.1767 45.0709 42.1579L42.6989 45.0324C41.7181 46.221 41.7018 47.8554 42.6637 48.6762C43.6256 49.4969 45.2057 49.1968 46.1865 48.0082L49.7445 43.6965L47.6519 41.911L54 39.9799Z" fill="#21201F"/>
</svg>
