<svg width="88" height="88" viewBox="0 0 88 88" fill="none" xmlns="http://www.w3.org/2000/svg">
<g filter="url(#filter0_d_848_53918)">
<rect x="20" y="12" width="48" height="48" rx="24" fill="white"/>
<path fill-rule="evenodd" clip-rule="evenodd" d="M39.8 35L45.0464 29.7536C45.2417 29.5583 45.2417 29.2417 45.0464 29.0464L44.3536 28.3536C44.1583 28.1583 43.8417 28.1583 43.6464 28.3536L36 36L43.6464 43.6464C43.8417 43.8417 44.1583 43.8417 44.3536 43.6464L45.0464 42.9536C45.2417 42.7583 45.2417 42.4417 45.0464 42.2464L39.8 37H51.5C51.7761 37 52 36.7761 52 36.5V35.5C52 35.2239 51.7761 35 51.5 35H39.8Z" fill="#21201F"/>
</g>
<defs>
<filter id="filter0_d_848_53918" x="0" y="0" width="88" height="88" filterUnits="userSpaceOnUse" color-interpolation-filters="sRGB">
<feFlood flood-opacity="0" result="BackgroundImageFix"/>
<feColorMatrix in="SourceAlpha" type="matrix" values="0 0 0 0 0 0 0 0 0 0 0 0 0 0 0 0 0 0 127 0" result="hardAlpha"/>
<feOffset dy="8"/>
<feGaussianBlur stdDeviation="10"/>
<feColorMatrix type="matrix" values="0 0 0 0 0.458824 0 0 0 0 0.45098 0 0 0 0 0.435294 0 0 0 0.2 0"/>
<feBlend mode="normal" in2="BackgroundImageFix" result="effect1_dropShadow_848_53918"/>
<feBlend mode="normal" in="SourceGraphic" in2="effect1_dropShadow_848_53918" result="shape"/>
</filter>
</defs>
</svg>
