<svg width="13" height="15" viewBox="0 0 13 15" fill="none" xmlns="http://www.w3.org/2000/svg">
<path fill-rule="evenodd" clip-rule="evenodd" d="M6.49871 10.0477L10.7487 12.881L10.7487 4.66699C10.7487 3.98752 10.7479 3.54887 10.725 3.21315C10.703 2.89015 10.6653 2.76714 10.6409 2.70819C10.4971 2.36107 10.2213 2.08528 9.87417 1.9415C9.81522 1.91708 9.69221 1.87937 9.36921 1.85733C9.03349 1.83443 8.59483 1.83366 7.91537 1.83366H5.08203C4.40257 1.83366 3.96391 1.83443 3.62819 1.85733C3.30519 1.87937 3.18218 1.91708 3.12323 1.9415C2.77611 2.08528 2.50032 2.36107 2.35653 2.70819C2.33212 2.76714 2.29441 2.89015 2.27237 3.21315C2.24946 3.54887 2.2487 3.98753 2.2487 4.66699L2.2487 12.881L6.49871 10.0477ZM2.24871 14.5837H0.832039L0.832031 4.66699C0.83203 3.34683 0.83203 2.68674 1.04771 2.16606C1.33527 1.47181 1.88685 0.920233 2.58109 0.632667C3.10178 0.416992 3.76186 0.416992 5.08203 0.416992H7.91537C9.23553 0.416992 9.89562 0.416992 10.4163 0.632667C11.1106 0.920233 11.6621 1.47181 11.9497 2.16606C12.1654 2.68674 12.1654 3.34682 12.1654 4.66699L12.1654 14.5837H10.7487L6.49871 11.7503L2.24871 14.5837Z" fill="white"/>
</svg>
