<svg width="16" height="20" viewBox="0 0 16 20" fill="none" xmlns="http://www.w3.org/2000/svg">
<path fill-rule="evenodd" clip-rule="evenodd" d="M8.00001 13.5963L14 17.5963L14 6C14 5.04075 13.9989 4.42148 13.9666 3.94752C13.9355 3.49152 13.8822 3.31786 13.8478 3.23463C13.6448 2.74458 13.2554 2.35523 12.7654 2.15224C12.6821 2.11777 12.5085 2.06453 12.0525 2.03342C11.5785 2.00108 10.9593 2 10 2H6C5.04075 2 4.42148 2.00108 3.94752 2.03342C3.49152 2.06453 3.31786 2.11777 3.23463 2.15224C2.74458 2.35523 2.35523 2.74458 2.15224 3.23463C2.11777 3.31786 2.06453 3.49152 2.03342 3.94752C2.00108 4.42148 2 5.04075 2 6L2.00001 17.5963L8.00001 13.5963ZM2.00001 20H1.0489e-05L1.05073e-08 6C-2.02797e-06 4.13624 -1.99676e-06 3.20435 0.304481 2.46927C0.710456 1.48915 1.48915 0.710458 2.46927 0.304482C3.20435 0 4.13623 0 6 0H10C11.8638 0 12.7957 0 13.5307 0.304482C14.5108 0.710458 15.2895 1.48915 15.6955 2.46927C16 3.20435 16 4.13623 16 6L16 20H14L8.00001 16L2.00001 20Z" fill="#21201F"/>
</svg>
