<svg width="16" height="16" viewBox="0 0 16 16" fill="none" xmlns="http://www.w3.org/2000/svg">
<path fill-rule="evenodd" clip-rule="evenodd" d="M7.99936 10.3982L11.9994 13.0648L11.9994 5.33398C11.9994 4.69449 11.9986 4.28164 11.9771 3.96566C11.9563 3.66167 11.9208 3.54589 11.8979 3.49041C11.7625 3.1637 11.503 2.90414 11.1763 2.76881C11.1208 2.74583 11.005 2.71034 10.701 2.6896C10.385 2.66804 9.97218 2.66732 9.33268 2.66732H6.66602C6.02652 2.66732 5.61367 2.66804 5.29769 2.6896C4.9937 2.71034 4.87792 2.74583 4.82244 2.76881C4.49573 2.90414 4.23617 3.1637 4.10084 3.49041C4.07786 3.54589 4.04237 3.66167 4.02163 3.96566C4.00007 4.28164 3.99935 4.69449 3.99935 5.33399L3.99936 13.0649L7.99936 10.3982ZM3.99936 14.6673H2.66602L2.66602 5.33399C2.66601 4.09147 2.66601 3.47022 2.869 2.98016C3.13965 2.32675 3.65878 1.80762 4.31219 1.53697C4.80225 1.33398 5.4235 1.33398 6.66602 1.33398H9.33268C10.5752 1.33398 11.1965 1.33398 11.6865 1.53697C12.3399 1.80762 12.859 2.32675 13.1297 2.98016C13.3327 3.47022 13.3327 4.09147 13.3327 5.33398L13.3327 14.6673H11.9994L7.99936 12.0007L3.99936 14.6673Z" fill="white"/>
</svg>
