<svg width="77" height="77" viewBox="0 0 77 77" fill="none" xmlns="http://www.w3.org/2000/svg">
<g filter="url(#filter0_d_0_1)">
<rect x="20" y="49" width="37" height="37" rx="18.5" transform="rotate(-90 20 49)" fill="black"/>
</g>
<path fill-rule="evenodd" clip-rule="evenodd" d="M38.4987 33.0477L42.7487 35.881L42.7487 27.667C42.7487 26.9875 42.7479 26.5489 42.725 26.2132C42.703 25.8902 42.6653 25.7671 42.6409 25.7082C42.4971 25.3611 42.2213 25.0853 41.8742 24.9415C41.8152 24.9171 41.6922 24.8794 41.3692 24.8573C41.0335 24.8344 40.5948 24.8337 39.9154 24.8337H37.082C36.4026 24.8337 35.9639 24.8344 35.6282 24.8573C35.3052 24.8794 35.1822 24.9171 35.1232 24.9415C34.7761 25.0853 34.5003 25.3611 34.3565 25.7082C34.3321 25.7671 34.2944 25.8902 34.2724 26.2132C34.2495 26.5489 34.2487 26.9875 34.2487 27.667L34.2487 35.881L38.4987 33.0477ZM34.2487 37.5837H32.832L32.832 27.667C32.832 26.3468 32.832 25.6867 33.0477 25.1661C33.3353 24.4718 33.8868 23.9202 34.5811 23.6327C35.1018 23.417 35.7619 23.417 37.082 23.417H39.9154C41.2355 23.417 41.8956 23.417 42.4163 23.6327C43.1106 23.9202 43.6621 24.4718 43.9497 25.1661C44.1654 25.6867 44.1654 26.3468 44.1654 27.667L44.1654 37.5837H42.7487L38.4987 34.7503L34.2487 37.5837Z" fill="white"/>
<defs>
<filter id="filter0_d_0_1" x="0" y="0" width="77" height="77" filterUnits="userSpaceOnUse" color-interpolation-filters="sRGB">
<feFlood flood-opacity="0" result="BackgroundImageFix"/>
<feColorMatrix in="SourceAlpha" type="matrix" values="0 0 0 0 0 0 0 0 0 0 0 0 0 0 0 0 0 0 127 0" result="hardAlpha"/>
<feOffset dy="8"/>
<feGaussianBlur stdDeviation="10"/>
<feColorMatrix type="matrix" values="0 0 0 0 0.458824 0 0 0 0 0.45098 0 0 0 0 0.435294 0 0 0 0.2 0"/>
<feBlend mode="normal" in2="BackgroundImageFix" result="effect1_dropShadow_0_1"/>
<feBlend mode="normal" in="SourceGraphic" in2="effect1_dropShadow_0_1" result="shape"/>
</filter>
</defs>
</svg>
