<svg width="40" height="40" viewBox="0 0 40 40" fill="none" xmlns="http://www.w3.org/2000/svg">
<rect width="40" height="40" rx="20" fill="#5C5A57" fill-opacity="0.1"/>
<path fill-rule="evenodd" clip-rule="evenodd" d="M23.3327 13.333C23.6982 13.333 24.0403 13.333 24.3013 13.3508C24.5762 13.3696 24.8511 13.4108 25.1227 13.5233C25.7353 13.777 26.222 14.2637 26.4757 14.8763C26.5882 15.1479 26.6295 15.4228 26.6482 15.6977C26.6512 15.7407 26.6536 15.7859 26.6557 15.833H28.3327V17.4997H26.6557C26.6536 17.5468 26.6512 17.592 26.6482 17.635C26.6295 17.9099 26.5882 18.1848 26.4757 18.4564C26.222 19.069 25.7353 19.5556 25.1227 19.8094C24.8511 19.9219 24.5762 19.9631 24.3013 19.9819C24.0403 19.9997 23.6982 19.9997 23.3327 19.9997C22.9672 19.9997 22.6251 19.9997 22.364 19.9819C22.0892 19.9631 21.8142 19.9219 21.5426 19.8094C20.9301 19.5556 20.4434 19.069 20.1897 18.4564C20.0771 18.1848 20.0359 17.9099 20.0171 17.635C20.0142 17.592 20.0118 17.5468 20.0097 17.4997H11.666V15.833H20.0097C20.0118 15.7859 20.0142 15.7407 20.0171 15.6977C20.0359 15.4228 20.0771 15.1479 20.1897 14.8763C20.4434 14.2637 20.9301 13.777 21.5426 13.5233C21.8142 13.4108 22.0892 13.3696 22.364 13.3508C22.6251 13.333 22.9671 13.333 23.3327 13.333ZM22.4775 15.0136C22.2875 15.0266 22.2151 15.0487 22.1804 15.0631C21.9763 15.1477 21.814 15.3099 21.7295 15.5141C21.7151 15.5488 21.6929 15.6211 21.6799 15.8111C21.6665 16.0086 21.666 16.2667 21.666 16.6663C21.666 17.066 21.6665 17.3241 21.6799 17.5215C21.6929 17.7115 21.7151 17.7839 21.7295 17.8186C21.814 18.0228 21.9763 18.185 22.1804 18.2696C22.2151 18.2839 22.2875 18.3061 22.4775 18.3191C22.675 18.3326 22.933 18.333 23.3327 18.333C23.7324 18.333 23.9904 18.3326 24.1879 18.3191C24.3779 18.3061 24.4502 18.2839 24.4849 18.2696C24.6891 18.185 24.8513 18.0228 24.9359 17.8186C24.9503 17.7839 24.9725 17.7115 24.9854 17.5215C24.9989 17.3241 24.9994 17.066 24.9994 16.6663C24.9994 16.2667 24.9989 16.0086 24.9854 15.8111C24.9725 15.6211 24.9503 15.5488 24.9359 15.5141C24.8513 15.3099 24.6891 15.1477 24.4849 15.0631C24.4502 15.0487 24.3779 15.0266 24.1879 15.0136C23.9904 15.0001 23.7324 14.9997 23.3327 14.9997C22.933 14.9997 22.675 15.0001 22.4775 15.0136Z" fill="#21201F"/>
<path fill-rule="evenodd" clip-rule="evenodd" d="M13.343 22.4997H11.666V24.1663H13.343C13.3451 24.2135 13.3475 24.2587 13.3505 24.3017C13.3692 24.5765 13.4105 24.8514 13.523 25.1231C13.7767 25.7356 14.2634 26.2223 14.876 26.476C15.1476 26.5885 15.4225 26.6298 15.6974 26.6486C15.9584 26.6664 16.3004 26.6664 16.6659 26.6663C17.0314 26.6664 17.3737 26.6664 17.6347 26.6486C17.9095 26.6298 18.1845 26.5885 18.4561 26.476C19.0686 26.2223 19.5553 25.7356 19.809 25.1231C19.9216 24.8514 19.9628 24.5765 19.9816 24.3017C19.9845 24.2587 19.9869 24.2135 19.989 24.1663H28.3327V22.4997H19.989C19.9869 22.4525 19.9845 22.4074 19.9816 22.3644C19.9628 22.0895 19.9216 21.8146 19.809 21.543C19.5553 20.9304 19.0686 20.4437 18.4561 20.19C18.1845 20.0775 17.9095 20.0362 17.6347 20.0175C17.3736 19.9997 17.0316 19.9997 16.666 19.9997C16.3005 19.9997 15.9584 19.9997 15.6974 20.0175C15.4225 20.0362 15.1476 20.0775 14.876 20.19C14.2634 20.4437 13.7767 20.9304 13.523 21.543C13.4105 21.8146 13.3692 22.0895 13.3505 22.3644C13.3475 22.4074 13.3451 22.4525 13.343 22.4997ZM15.5138 21.7298C15.5485 21.7154 15.6208 21.6932 15.8108 21.6803C16.0083 21.6668 16.2663 21.6663 16.666 21.6663C17.0657 21.6663 17.3237 21.6668 17.5212 21.6803C17.7112 21.6932 17.7836 21.7154 17.8183 21.7298C18.0224 21.8144 18.1847 21.9766 18.2692 22.1808C18.2836 22.2155 18.3058 22.2878 18.3188 22.4778C18.3322 22.6753 18.3327 22.9333 18.3327 23.333C18.3327 23.7327 18.3322 23.9907 18.3188 24.1882C18.3058 24.3782 18.2836 24.4506 18.2692 24.4852C18.1847 24.6894 18.0224 24.8517 17.8183 24.9362C17.7836 24.9506 17.7112 24.9728 17.5212 24.9858C17.3237 24.9992 17.0657 24.9997 16.666 24.9997C16.2663 24.9997 16.0083 24.9992 15.8108 24.9858C15.6208 24.9728 15.5485 24.9506 15.5138 24.9362C15.3096 24.8517 15.1474 24.6894 15.0628 24.4852C15.0484 24.4506 15.0262 24.3782 15.0133 24.1882C14.9998 23.9907 14.9993 23.7327 14.9993 23.333C14.9993 22.9333 14.9998 22.6753 15.0133 22.4778C15.0262 22.2878 15.0484 22.2155 15.0628 22.1808C15.1474 21.9766 15.3096 21.8144 15.5138 21.7298Z" fill="#21201F"/>
</svg>
