<svg width="13" height="20" viewBox="0 0 13 20" fill="none" xmlns="http://www.w3.org/2000/svg">
<path fill-rule="evenodd" clip-rule="evenodd" d="M13 8.27017C12.1647 9.92421 10.9639 10.7512 9.39759 10.7512C7.83133 10.7512 6.63052 9.92421 5.79518 8.27017L6.08965 0.495814C6.10014 0.218835 6.31582 0 6.57831 0H6.8992C6.98266 0 7.05146 0.0691143 7.05563 0.157144L7.32229 5.78912H8.65361L8.92027 0.157144C8.92444 0.0691143 8.99324 0 9.0767 0H9.71848C9.80194 0 9.87074 0.0691143 9.87491 0.157144L10.1416 5.78912H11.4729L11.7395 0.157144C11.7437 0.0691143 11.8125 0 11.896 0H12.2169C12.4794 0 12.695 0.218835 12.7055 0.495814L13 8.27017ZM10.267 11.4578L10.471 18.9978C10.4833 19.4543 10.1428 19.835 9.71051 19.8481C9.70306 19.8483 9.6956 19.8484 9.68815 19.8484H9.10703C8.67452 19.8484 8.3239 19.4781 8.3239 19.0214C8.3239 19.0135 8.32401 19.0056 8.32422 18.9978L8.52821 11.4578C8.81801 11.5381 9.1078 11.5782 9.39759 11.5782C9.68738 11.5782 9.97717 11.5381 10.267 11.4578ZM3.91566 0.87288V19.8484H3.35306C2.48803 19.8484 1.78679 19.1079 1.78679 18.1944C1.78679 18.1723 1.78721 18.1503 1.78805 18.1283L2.03614 11.5782C1.72289 10.7188 1.04418 10.1675 0 9.92421C0 5.52297 0.849847 2.32179 2.54954 0.320667C2.83834 -0.0193498 3.33346 -0.0477593 3.65544 0.257225C3.82105 0.414095 3.91566 0.637944 3.91566 0.87288Z" fill="white"/>
</svg>
