<svg width="9" height="9" viewBox="0 0 9 9" fill="none" xmlns="http://www.w3.org/2000/svg">
<path d="M4.5 0C2.145 0 0 1.70137 0 4.5C0 7.29863 2.2175 9 4.5 9C6.96125 9 9 7.29863 9 4.5C9 1.70137 6.98625 0 4.5 0ZM4.5 0.554794C6.54875 0.554794 8 2.18219 8 4.5C8 5.01534 7.9275 5.4974 7.79375 5.93384C6.99 8.13205 5.11 8.35767 4.1225 8.24548C3.20875 8.14808 2.335 7.67466 1.7875 6.98178C1.27375 6.33329 1.0325 5.48137 1.1425 4.69973C1.24 3.97603 1.6425 3.29425 2.2175 2.87753L2.23625 2.86274C2.76375 2.48795 3.4375 2.32767 4.04375 2.4337C4.59875 2.52863 5.10875 2.84671 5.4075 3.28562C5.6725 3.68014 5.77 4.16959 5.66875 4.59493C5.58 4.96479 5.34125 5.28904 5.0325 5.46041C4.76625 5.60342 4.46 5.63425 4.215 5.54301C3.98375 5.45794 3.85875 5.28904 3.81875 5.16575C3.775 5.01658 3.8225 4.91548 3.85375 4.88096C3.86625 4.8674 3.87875 4.86123 3.885 4.86C4.0325 4.92534 4.21 4.86863 4.2875 4.72562C4.37 4.57644 4.3125 4.38904 4.16125 4.30767C3.92 4.17945 3.5975 4.24603 3.39375 4.46425C3.19125 4.68123 3.12375 5.01534 3.22 5.34329C3.33 5.69096 3.62 5.98192 3.995 6.12C4.40875 6.27288 4.9075 6.22849 5.33375 5.99918C5.7975 5.74397 6.15 5.27055 6.27625 4.73548C6.41875 4.13877 6.2925 3.48658 5.9275 2.94288C5.52875 2.35726 4.88125 1.94918 4.1525 1.82466C3.365 1.68781 2.52625 1.88753 1.85125 2.37575L1.82875 2.39301C1.61 2.55329 1.41375 2.74192 1.24375 2.95027C1.7375 1.48808 2.9475 0.551096 4.5 0.551096V0.554794Z" fill="#21201F"/>
</svg>
