<svg width="88" height="88" viewBox="0 0 88 88" fill="none" xmlns="http://www.w3.org/2000/svg">
<g filter="url(#filter0_d_2121_108070)">
<rect x="20" y="60" width="48" height="48" rx="24" transform="rotate(-90 20 60)" fill="white"/>
<path fill-rule="evenodd" clip-rule="evenodd" d="M50 45C50.93 45 51.3949 45 51.7764 44.8978C52.8117 44.6204 53.6204 43.8117 53.8978 42.7765C54 42.395 54 41.93 54 41C54 40.07 54 39.605 53.8978 39.2235C53.6204 38.1883 52.8117 37.3796 51.7764 37.1022C51.3949 37 50.93 37 50 37H38C37.07 37 36.605 37 36.2235 37.1022C35.1883 37.3796 34.3796 38.1883 34.1022 39.2235C34 39.605 34 40.07 34 41C34 41.93 34 42.395 34.1022 42.7765C34.3796 43.8117 35.1883 44.6204 36.2235 44.8978C36.605 45 37.07 45 38 45H50ZM50 39H38C37.5169 39 37.2213 39.0005 36.9972 39.0107C36.7839 39.0204 36.7337 39.0361 36.7412 39.0341C36.3961 39.1265 36.1265 39.3961 36.0341 39.7412C36.0324 39.7482 36.0193 39.8096 36.0107 39.9972C36.0005 40.2213 36 40.5169 36 41C36 41.4831 36.0005 41.7787 36.0107 42.0028C36.0204 42.2161 36.0361 42.2663 36.0341 42.2588C36.1265 42.6039 36.3961 42.8735 36.7412 42.9659C36.7337 42.9639 36.7839 42.9796 36.9972 42.9893C37.2213 42.9995 37.5169 43 38 43H50C50.4831 43 50.7787 42.9995 51.0028 42.9893C51.2161 42.9796 51.2663 42.9639 51.2588 42.9659C51.6039 42.8735 51.8734 42.6039 51.9659 42.2588C51.9639 42.2663 51.9796 42.2161 51.9893 42.0028C51.9995 41.7787 52 41.4831 52 41C52 40.5169 51.9995 40.2213 51.9893 39.9972C51.9801 39.7963 51.9657 39.7401 51.9657 39.7405C51.9657 39.7405 51.9656 39.74 51.9657 39.7405C51.8733 39.3954 51.6039 39.1265 51.2588 39.0341C51.2663 39.0361 51.2161 39.0204 51.0028 39.0107C50.7787 39.0005 50.4831 39 50 39Z" fill="#21201F"/>
<path fill-rule="evenodd" clip-rule="evenodd" d="M50 35C50.93 35 51.3949 35 51.7764 34.8978C52.8117 34.6204 53.6204 33.8117 53.8978 32.7765C54 32.395 54 31.93 54 31C54 30.07 54 29.605 53.8978 29.2235C53.6204 28.1883 52.8117 27.3796 51.7764 27.1022C51.3949 27 50.93 27 50 27H38C37.07 27 36.605 27 36.2235 27.1022C35.1883 27.3796 34.3796 28.1883 34.1022 29.2235C34 29.605 34 30.07 34 31C34 31.93 34 32.395 34.1022 32.7765C34.3796 33.8117 35.1883 34.6204 36.2235 34.8978C36.605 35 37.07 35 38 35H50ZM50 29H38C37.5169 29 37.2213 29.0005 36.9972 29.0107C36.7839 29.0204 36.7337 29.0361 36.7412 29.0341C36.3961 29.1265 36.1265 29.3961 36.0341 29.7412C36.0324 29.7482 36.0193 29.8096 36.0107 29.9972C36.0005 30.2213 36 30.5169 36 31C36 31.4831 36.0005 31.7787 36.0107 32.0028C36.0199 32.2034 36.0342 32.2597 36.0342 32.2595C36.0344 32.26 36.0343 32.2595 36.0342 32.2595C36.1267 32.6046 36.3961 32.8735 36.7412 32.9659C36.7337 32.9639 36.7839 32.9796 36.9972 32.9893C37.2213 32.9995 37.5169 33 38 33H50C50.4831 33 50.7787 32.9995 51.0028 32.9893C51.2161 32.9796 51.2663 32.9639 51.2588 32.9659C51.6039 32.8735 51.8734 32.6039 51.9659 32.2588C51.9639 32.2663 51.9796 32.2161 51.9893 32.0028C51.9995 31.7787 52 31.4831 52 31C52 30.5169 51.9995 30.2213 51.9893 29.9972C51.9801 29.7961 51.9657 29.74 51.9657 29.7405C51.9657 29.7405 51.9656 29.7401 51.9657 29.7405C51.8733 29.3954 51.6039 29.1265 51.2588 29.0341C51.2663 29.0361 51.2161 29.0204 51.0028 29.0107C50.7787 29.0005 50.4831 29 50 29Z" fill="#21201F"/>
</g>
<defs>
<filter id="filter0_d_2121_108070" x="0" y="0" width="88" height="88" filterUnits="userSpaceOnUse" color-interpolation-filters="sRGB">
<feFlood flood-opacity="0" result="BackgroundImageFix"/>
<feColorMatrix in="SourceAlpha" type="matrix" values="0 0 0 0 0 0 0 0 0 0 0 0 0 0 0 0 0 0 127 0" result="hardAlpha"/>
<feOffset dy="8"/>
<feGaussianBlur stdDeviation="10"/>
<feColorMatrix type="matrix" values="0 0 0 0 0.458824 0 0 0 0 0.45098 0 0 0 0 0.435294 0 0 0 0.2 0"/>
<feBlend mode="normal" in2="BackgroundImageFix" result="effect1_dropShadow_2121_108070"/>
<feBlend mode="normal" in="SourceGraphic" in2="effect1_dropShadow_2121_108070" result="shape"/>
</filter>
</defs>
</svg>
