<svg width="9" height="9" viewBox="0 0 9 9" fill="none" xmlns="http://www.w3.org/2000/svg">
<path d="M8.28312 2.06451C6.93807 -0.0250456 4.15384 -0.628352 2.06452 0.716686C-0.0250458 2.06172 -0.628356 4.84594 0.716691 6.93549C2.06174 9.02505 4.84597 9.62835 6.93554 8.28331C9.02486 6.93828 9.62842 4.15406 8.28337 2.06451H8.28312ZM1.75528 6.13783C0.543088 4.26364 0.861445 1.87041 2.52839 0.792099C4.02604 -0.176631 6.0617 0.245986 7.33893 1.70035C7.99083 2.52357 7.17013 2.68831 5.98604 3.19925C3.75526 4.16191 2.18827 5.85111 2.50789 6.14467C2.76223 6.37824 8.51796 4.61388 7.46673 6.9484C7.35082 7.20577 7.15976 7.42214 6.92263 7.57524C6.92112 7.57625 6.91934 7.57726 6.91783 7.57853C5.25088 8.65684 2.96746 8.01178 1.75528 6.13758V6.13783ZM7.55353 7.0395C7.82355 6.62372 8.11281 5.95031 7.59782 5.45886C6.91352 4.8057 3.09906 5.22857 4.51091 4.22947C5.17091 3.76232 7.95995 2.31454 8.39371 4.03664C8.39371 4.03715 8.39396 4.0379 8.39421 4.03841C8.42585 4.16418 8.44559 4.29249 8.45293 4.42206C8.51164 5.44924 8.26464 6.33826 7.55353 7.0395Z" fill="#FFF1B4"/>
</svg>
