<svg width="16" height="24" viewBox="0 0 16 24" fill="none" xmlns="http://www.w3.org/2000/svg">
<g clip-path="url(#clip0_1034_45864)">
<path fill-rule="evenodd" clip-rule="evenodd" d="M4.98052 1.07088L11.6777 1.79557L9.90576 3.89962L14.2403 7.42971C16.2321 9.05179 16.66 11.7875 15.1946 13.5275C13.7291 15.2676 10.9162 15.3639 8.92447 13.7419L6.03475 11.3885C4.83985 10.4153 3.20534 10.4096 2.39083 11.3768C1.57632 12.344 1.88659 13.9221 3.08149 14.8952L6.82656 17.9452C7.81186 17.3725 9.10018 17.4321 10.0422 18.1993C11.2393 19.1742 11.4163 20.9063 10.4376 22.0684C9.45885 23.2305 7.69539 23.3823 6.49832 22.4074C5.55627 21.6402 5.2567 20.4066 5.64526 19.3479L1.90018 16.2979C-0.0915558 14.6758 -0.51944 11.9402 0.945968 10.2001C2.41138 8.46005 5.22431 8.36369 7.21605 9.98577L10.1058 12.3392C11.3007 13.3123 12.9352 13.318 13.7497 12.3508C14.5642 11.3837 14.2539 9.80554 13.059 8.83241L8.72445 5.30232L6.9525 7.40637L4.98052 1.07088Z" fill="#FCFCFC"/>
</g>
<defs>
<clipPath id="clip0_1034_45864">
<rect width="16" height="24" fill="white"/>
</clipPath>
</defs>
</svg>
