<svg width="24" height="24" viewBox="0 0 24 24" fill="none" xmlns="http://www.w3.org/2000/svg">
<path fill-rule="evenodd" clip-rule="evenodd" d="M17.809 4.45059L18.4798 4.17933C19.1379 3.91318 19.532 3.2348 19.4371 2.53125L16.3766 3.07154C16.0418 2.92915 15.6735 2.85037 15.2868 2.85037C13.7477 2.85037 12.5 4.09804 12.5 5.63712C12.5 7.1762 13.7477 8.42387 15.2868 8.42387C16.8258 8.42387 18.0735 7.1762 18.0735 5.63712C18.0735 5.21278 17.9787 4.81058 17.809 4.45059ZM3.12972 10.7435C3.65136 9.74743 4.69955 9.14039 5.8231 9.18367C6.29909 9.202 6.86356 9.21133 7.48596 9.22161H7.48599C8.73965 9.24233 10.2283 9.26694 11.7023 9.37683C11.9949 13.2611 10.8463 15.7035 9.15022 17.2998L8.85022 19.3998C12.0837 17.3474 13.577 13.9036 13.2092 9.52398C15.3605 9.79137 17.2853 10.3137 18.1411 11.3657C18.2021 11.4406 18.2451 11.5256 18.2729 11.616C18.2997 11.6633 18.3245 11.7292 18.3612 11.8268L20.423 17.3002L20.423 17.3002C20.6985 18.0318 20.8363 18.3975 20.8504 18.753C20.8686 19.2119 20.7427 19.6649 20.4905 20.0486C20.2951 20.3459 19.9884 20.5882 19.375 21.0728L17.6151 17.3087C17.3654 18.6559 17.0658 19.881 16.7002 21.0699C15.1733 21.0699 12.9553 21.0446 11.1878 21.0245C10.0171 21.0111 9.04395 21 8.60019 21L8.8502 19.4L3.6502 19.1L4.5002 12.7L2.54883 11.8527L3.12972 10.7435Z" fill="#FCFCFC"/>
</svg>
