<svg width="24" height="24" viewBox="0 0 24 24" fill="none" xmlns="http://www.w3.org/2000/svg">
<path fill-rule="evenodd" clip-rule="evenodd" d="M17.809 4.45073L18.4801 4.17933C19.1382 3.91318 19.5323 3.2348 19.4374 2.53125L16.3758 3.07174C16.0413 2.92962 15.6733 2.851 15.2869 2.851C13.7479 2.851 12.5002 4.09867 12.5002 5.63775C12.5002 7.17684 13.7479 8.42451 15.2869 8.42451C16.826 8.42451 18.0737 7.17684 18.0737 5.63775C18.0737 5.21322 17.9788 4.81085 17.809 4.45073ZM3.12972 10.7436C3.65136 9.74758 4.69955 9.14054 5.8231 9.18381C6.29909 9.20215 6.86356 9.21147 7.48596 9.22176C8.73961 9.24248 10.2283 9.26708 11.7022 9.37697C11.9949 13.2614 10.8463 15.7039 9.15019 17.3003L8.8502 19.4002L3.6502 19.1002L4.5002 12.7002L2.54883 11.8528L3.12972 10.7436ZM8.85019 19.4003L8.60019 21.0002C9.04381 21.0002 10.0165 21.0112 11.1867 21.0246L11.1878 21.0246L11.1881 21.0246H11.1883C12.9557 21.0448 15.1734 21.07 16.7002 21.07C17.0658 19.8813 17.3653 18.6563 17.615 17.3094L19.3748 21.0733C19.9882 20.5887 20.2949 20.3464 20.4903 20.0491C20.7426 19.6654 20.8684 19.2124 20.8503 18.7535C20.8362 18.398 20.6984 18.0323 20.4228 17.3007L18.3611 11.8273C18.3246 11.7304 18.2999 11.6647 18.2733 11.6175C18.2456 11.5267 18.2024 11.4412 18.1411 11.3658C17.2853 10.3138 15.3604 9.7915 13.2091 9.52411C13.5771 13.9039 12.0837 17.3479 8.85019 19.4003Z" fill="#21201F"/>
</svg>
