<svg width="24" height="26" viewBox="0 0 24 26" fill="none" xmlns="http://www.w3.org/2000/svg">
<path fill-rule="evenodd" clip-rule="evenodd" d="M12 15.5963L18 19.5963L18 8C18 7.04075 17.9989 6.42148 17.9666 5.94752C17.9355 5.49152 17.8822 5.31786 17.8478 5.23463C17.6448 4.74458 17.2554 4.35523 16.7654 4.15224C16.6821 4.11777 16.5085 4.06453 16.0525 4.03342C15.5785 4.00108 14.9593 4 14 4H10C9.04075 4 8.42148 4.00108 7.94752 4.03342C7.49152 4.06453 7.31786 4.11777 7.23463 4.15224C6.74458 4.35523 6.35523 4.74458 6.15224 5.23463C6.11777 5.31786 6.06453 5.49152 6.03342 5.94752C6.00108 6.42148 6 7.04075 6 8L6.00001 19.5963L12 15.5963ZM6.00001 22H4.00001L4 8C4 6.13624 4 5.20435 4.30448 4.46927C4.71046 3.48915 5.48915 2.71046 6.46927 2.30448C7.20435 2 8.13623 2 10 2H14C15.8638 2 16.7957 2 17.5307 2.30448C18.5108 2.71046 19.2895 3.48915 19.6955 4.46927C20 5.20435 20 6.13623 20 8L20 22H18L12 18L6.00001 22Z" fill="white"/>
</svg>
